<svg xmlns="http://www.w3.org/2000/svg" xmlns:xlink="http://www.w3.org/1999/xlink" viewBox="0 0 60 75" version="1.1" x="0px" y="0px"><title>7 -Sushi- (Solid)</title><desc>Created with Sketch.</desc><g stroke="none" stroke-width="1" fill="none" fill-rule="evenodd"><g transform="translate(-840.000000, -327.000000)" fill="#000000"><g transform="translate(840.000000, 327.000000)"><path d="M31.1957,20.9917 L31.1957,20.9997 C31.1957,26.4327 35.1587,30.9467 40.3437,31.8317 L18.8377,40.2487 L31.1957,20.9917 Z M48.3337,17.7107 C49.0637,19.0517 49.3707,20.6357 49.0767,22.2497 C47.9767,28.2857 39.8037,30.0067 36.3827,24.8857 C33.3317,20.3197 36.7267,13.9997 42.1957,13.9997 C44.8507,13.9997 47.1497,15.5367 48.3337,17.7107 L48.3337,17.7107 Z M59.0067,24.9997 L58.0067,24.9937 L57.6367,25.0627 L50.8997,27.6997 C52.3327,25.8417 53.1957,23.5227 53.1957,20.9997 C53.1957,14.9347 48.2607,9.9997 42.1957,9.9997 C40.5507,9.9997 38.9957,10.3727 37.5937,11.0217 L43.0367,2.5397 L42.9027,1.2927 L41.9027,0.2927 L41.1957,-0.0003 L40.1957,-0.0003 L39.3757,0.4267 L8.7027,44.2157 L0.8307,47.2967 L0.3007,48.6737 L2.4937,53.0687 L0.1827,56.3637 L0.6267,57.8657 L5.3437,59.7667 L6.5597,59.3797 L12.7547,49.7267 L59.3847,28.9127 L59.9777,28.0117 L60.0007,26.0117 L59.0067,24.9997 Z"/></g></g></g><text x="0" y="75" fill="#000000" font-size="5px" font-weight="bold" font-family="'Helvetica Neue', Helvetica, Arial-Unicode, Arial, Sans-serif">Created by Ben Davis</text><text x="0" y="80" fill="#000000" font-size="5px" font-weight="bold" font-family="'Helvetica Neue', Helvetica, Arial-Unicode, Arial, Sans-serif">from the Noun Project</text></svg>